<mxfile host="Electron" modified="2023-10-10T10:05:12.861Z" agent="Mozilla/5.0 (Windows NT 10.0; Win64; x64) AppleWebKit/537.36 (KHTML, like Gecko) draw.io/21.7.5 Chrome/114.0.5735.289 Electron/25.8.1 Safari/537.36" etag="1odj6wpCFCkN1N1UGZ16" version="21.7.5" type="device" pages="7">
  <diagram name="EJERCICIO_1" id="B3KhqRVO3Da6G5rfI1B3">
    <mxGraphModel dx="2245" dy="828" grid="1" gridSize="10" guides="1" tooltips="1" connect="1" arrows="1" fold="1" page="1" pageScale="1" pageWidth="827" pageHeight="1169" math="0" shadow="0">
      <root>
        <mxCell id="0" />
        <mxCell id="1" parent="0" />
        <mxCell id="PdYUbg2X1ITO_l5vPufN-65" value="" style="edgeStyle=orthogonalEdgeStyle;rounded=0;orthogonalLoop=1;jettySize=auto;html=1;" parent="1" source="PdYUbg2X1ITO_l5vPufN-9" target="PdYUbg2X1ITO_l5vPufN-64" edge="1">
          <mxGeometry relative="1" as="geometry" />
        </mxCell>
        <mxCell id="PdYUbg2X1ITO_l5vPufN-9" value="PRODUCTO" style="rounded=0;whiteSpace=wrap;html=1;" parent="1" vertex="1">
          <mxGeometry x="870" y="105" width="120" height="60" as="geometry" />
        </mxCell>
        <mxCell id="PdYUbg2X1ITO_l5vPufN-10" value="CLIENTE" style="rounded=0;whiteSpace=wrap;html=1;" parent="1" vertex="1">
          <mxGeometry x="385" y="120" width="110" height="60" as="geometry" />
        </mxCell>
        <mxCell id="PdYUbg2X1ITO_l5vPufN-16" value="NOMBRE" style="ellipse;whiteSpace=wrap;html=1;" parent="1" vertex="1">
          <mxGeometry x="300" y="90" width="70" height="60" as="geometry" />
        </mxCell>
        <mxCell id="PdYUbg2X1ITO_l5vPufN-17" value="APELLIDO" style="ellipse;whiteSpace=wrap;html=1;" parent="1" vertex="1">
          <mxGeometry x="300" y="150" width="70" height="60" as="geometry" />
        </mxCell>
        <mxCell id="PdYUbg2X1ITO_l5vPufN-19" value="FECHA_NAC" style="ellipse;whiteSpace=wrap;html=1;" parent="1" vertex="1">
          <mxGeometry x="214" y="170" width="86" height="60" as="geometry" />
        </mxCell>
        <mxCell id="PdYUbg2X1ITO_l5vPufN-20" value="ID" style="ellipse;whiteSpace=wrap;html=1;fontStyle=4" parent="1" vertex="1">
          <mxGeometry x="300" y="20" width="70" height="60" as="geometry" />
        </mxCell>
        <mxCell id="PdYUbg2X1ITO_l5vPufN-21" value="DNI" style="ellipse;whiteSpace=wrap;html=1;" parent="1" vertex="1">
          <mxGeometry x="230" y="40" width="70" height="60" as="geometry" />
        </mxCell>
        <mxCell id="PdYUbg2X1ITO_l5vPufN-22" value="DIRECCION" style="ellipse;whiteSpace=wrap;html=1;" parent="1" vertex="1">
          <mxGeometry x="214" y="110" width="70" height="60" as="geometry" />
        </mxCell>
        <mxCell id="PdYUbg2X1ITO_l5vPufN-24" value="NOMBRE" style="ellipse;whiteSpace=wrap;html=1;" parent="1" vertex="1">
          <mxGeometry x="1000" y="470" width="70" height="35" as="geometry" />
        </mxCell>
        <mxCell id="PdYUbg2X1ITO_l5vPufN-25" value="PRECIO_UNITARIO" style="ellipse;whiteSpace=wrap;html=1;" parent="1" vertex="1">
          <mxGeometry x="625" y="10" width="130" height="60" as="geometry" />
        </mxCell>
        <mxCell id="PdYUbg2X1ITO_l5vPufN-26" value="ID" style="ellipse;whiteSpace=wrap;html=1;fontStyle=4" parent="1" vertex="1">
          <mxGeometry x="890" y="40" width="40" height="50" as="geometry" />
        </mxCell>
        <mxCell id="PdYUbg2X1ITO_l5vPufN-27" value="NOMBRE" style="ellipse;whiteSpace=wrap;html=1;" parent="1" vertex="1">
          <mxGeometry x="940" y="40" width="60" height="50" as="geometry" />
        </mxCell>
        <mxCell id="PdYUbg2X1ITO_l5vPufN-32" value="" style="endArrow=classic;html=1;rounded=0;entryX=0;entryY=0.5;entryDx=0;entryDy=0;" parent="1" target="PdYUbg2X1ITO_l5vPufN-51" edge="1">
          <mxGeometry width="50" height="50" relative="1" as="geometry">
            <mxPoint x="500" y="140" as="sourcePoint" />
            <mxPoint x="500" y="140" as="targetPoint" />
          </mxGeometry>
        </mxCell>
        <mxCell id="PdYUbg2X1ITO_l5vPufN-39" value="(N:M)" style="text;html=1;strokeColor=none;fillColor=none;align=center;verticalAlign=middle;whiteSpace=wrap;rounded=0;" parent="1" vertex="1">
          <mxGeometry x="660" y="180" width="60" height="30" as="geometry" />
        </mxCell>
        <mxCell id="PdYUbg2X1ITO_l5vPufN-40" value="(1,N)" style="text;html=1;strokeColor=none;fillColor=none;align=center;verticalAlign=middle;whiteSpace=wrap;rounded=0;" parent="1" vertex="1">
          <mxGeometry x="490" y="150" width="60" height="30" as="geometry" />
        </mxCell>
        <mxCell id="PdYUbg2X1ITO_l5vPufN-54" value="" style="edgeStyle=orthogonalEdgeStyle;rounded=0;orthogonalLoop=1;jettySize=auto;html=1;" parent="1" source="PdYUbg2X1ITO_l5vPufN-51" edge="1">
          <mxGeometry relative="1" as="geometry">
            <mxPoint x="860" y="140" as="targetPoint" />
          </mxGeometry>
        </mxCell>
        <mxCell id="PdYUbg2X1ITO_l5vPufN-56" value="" style="edgeStyle=orthogonalEdgeStyle;rounded=0;orthogonalLoop=1;jettySize=auto;html=1;" parent="1" source="PdYUbg2X1ITO_l5vPufN-51" target="PdYUbg2X1ITO_l5vPufN-25" edge="1">
          <mxGeometry relative="1" as="geometry" />
        </mxCell>
        <mxCell id="PdYUbg2X1ITO_l5vPufN-51" value="COMPRAR" style="rhombus;whiteSpace=wrap;html=1;" parent="1" vertex="1">
          <mxGeometry x="650" y="100" width="80" height="80" as="geometry" />
        </mxCell>
        <mxCell id="PdYUbg2X1ITO_l5vPufN-57" value="(1.N)" style="text;html=1;strokeColor=none;fillColor=none;align=center;verticalAlign=middle;whiteSpace=wrap;rounded=0;" parent="1" vertex="1">
          <mxGeometry x="800" y="140" width="60" height="30" as="geometry" />
        </mxCell>
        <mxCell id="PdYUbg2X1ITO_l5vPufN-61" value="NIF" style="ellipse;whiteSpace=wrap;html=1;" parent="1" vertex="1">
          <mxGeometry x="1000" y="420" width="70" height="45" as="geometry" />
        </mxCell>
        <mxCell id="PdYUbg2X1ITO_l5vPufN-62" value="ID" style="ellipse;whiteSpace=wrap;html=1;fontStyle=4" parent="1" vertex="1">
          <mxGeometry x="1000" y="380" width="70" height="40" as="geometry" />
        </mxCell>
        <mxCell id="PdYUbg2X1ITO_l5vPufN-67" value="" style="edgeStyle=orthogonalEdgeStyle;rounded=0;orthogonalLoop=1;jettySize=auto;html=1;" parent="1" source="PdYUbg2X1ITO_l5vPufN-64" target="PdYUbg2X1ITO_l5vPufN-66" edge="1">
          <mxGeometry relative="1" as="geometry" />
        </mxCell>
        <mxCell id="PdYUbg2X1ITO_l5vPufN-64" value="SUMINISTRAR" style="rhombus;whiteSpace=wrap;html=1;rounded=0;" parent="1" vertex="1">
          <mxGeometry x="890" y="235" width="80" height="80" as="geometry" />
        </mxCell>
        <mxCell id="PdYUbg2X1ITO_l5vPufN-66" value="PROVEEDOR" style="whiteSpace=wrap;html=1;rounded=0;" parent="1" vertex="1">
          <mxGeometry x="870" y="405" width="120" height="60" as="geometry" />
        </mxCell>
        <mxCell id="PdYUbg2X1ITO_l5vPufN-68" value="(1,1)" style="text;html=1;strokeColor=none;fillColor=none;align=center;verticalAlign=middle;whiteSpace=wrap;rounded=0;" parent="1" vertex="1">
          <mxGeometry x="860" y="370" width="60" height="30" as="geometry" />
        </mxCell>
        <mxCell id="PdYUbg2X1ITO_l5vPufN-69" value="(1,N)" style="text;html=1;strokeColor=none;fillColor=none;align=center;verticalAlign=middle;whiteSpace=wrap;rounded=0;" parent="1" vertex="1">
          <mxGeometry x="870" y="165" width="60" height="30" as="geometry" />
        </mxCell>
        <mxCell id="PdYUbg2X1ITO_l5vPufN-70" value="(1:N)" style="text;html=1;strokeColor=none;fillColor=none;align=center;verticalAlign=middle;whiteSpace=wrap;rounded=0;" parent="1" vertex="1">
          <mxGeometry x="830" y="260" width="60" height="30" as="geometry" />
        </mxCell>
        <mxCell id="PdYUbg2X1ITO_l5vPufN-71" value="DIRECCION" style="ellipse;whiteSpace=wrap;html=1;" parent="1" vertex="1">
          <mxGeometry x="1000" y="510" width="70" height="45" as="geometry" />
        </mxCell>
        <mxCell id="rR9tvWjPbD6bjmbwCGUJ-1" value="CLIENTE(&lt;u&gt;ID&lt;/u&gt;, DNI, NOMBRE, APELLIDO, DIRECCION, FECH_NAC )" style="text;html=1;strokeColor=none;fillColor=none;align=center;verticalAlign=middle;whiteSpace=wrap;rounded=0;" vertex="1" parent="1">
          <mxGeometry x="70" y="380" width="430" height="30" as="geometry" />
        </mxCell>
        <mxCell id="rR9tvWjPbD6bjmbwCGUJ-2" value="PRODUCTO(&lt;u&gt;ID&lt;/u&gt;, NOMBRE, ID_PROVEEDOR)" style="text;html=1;strokeColor=none;fillColor=none;align=center;verticalAlign=middle;whiteSpace=wrap;rounded=0;" vertex="1" parent="1">
          <mxGeometry y="525" width="430" height="30" as="geometry" />
        </mxCell>
        <mxCell id="rR9tvWjPbD6bjmbwCGUJ-3" value="CLIENTE_PRODUCTO(&lt;u&gt;ID_CLIENTE&lt;/u&gt;, &lt;u&gt;ID_PRODUCTO&lt;/u&gt;, PRECIO_UNITARIO)" style="text;html=1;strokeColor=none;fillColor=none;align=center;verticalAlign=middle;whiteSpace=wrap;rounded=0;" vertex="1" parent="1">
          <mxGeometry x="80" y="460" width="430" height="30" as="geometry" />
        </mxCell>
        <mxCell id="rR9tvWjPbD6bjmbwCGUJ-4" value="" style="endArrow=classic;html=1;rounded=0;entryX=0.223;entryY=0.967;entryDx=0;entryDy=0;entryPerimeter=0;exitX=0.391;exitY=0.067;exitDx=0;exitDy=0;exitPerimeter=0;" edge="1" parent="1" source="rR9tvWjPbD6bjmbwCGUJ-3" target="rR9tvWjPbD6bjmbwCGUJ-1">
          <mxGeometry width="50" height="50" relative="1" as="geometry">
            <mxPoint x="260" y="450" as="sourcePoint" />
            <mxPoint x="310" y="400" as="targetPoint" />
            <Array as="points">
              <mxPoint x="170" y="460" />
            </Array>
          </mxGeometry>
        </mxCell>
        <mxCell id="rR9tvWjPbD6bjmbwCGUJ-5" value="" style="endArrow=classic;html=1;rounded=0;" edge="1" parent="1" source="rR9tvWjPbD6bjmbwCGUJ-3">
          <mxGeometry width="50" height="50" relative="1" as="geometry">
            <mxPoint x="460" y="540" as="sourcePoint" />
            <mxPoint x="510" y="490" as="targetPoint" />
          </mxGeometry>
        </mxCell>
        <mxCell id="rR9tvWjPbD6bjmbwCGUJ-6" value="" style="endArrow=classic;html=1;rounded=0;exitX=0.523;exitY=1.067;exitDx=0;exitDy=0;exitPerimeter=0;entryX=0.398;entryY=0.067;entryDx=0;entryDy=0;entryPerimeter=0;" edge="1" parent="1" source="rR9tvWjPbD6bjmbwCGUJ-3" target="rR9tvWjPbD6bjmbwCGUJ-2">
          <mxGeometry width="50" height="50" relative="1" as="geometry">
            <mxPoint x="510" y="550" as="sourcePoint" />
            <mxPoint x="560" y="500" as="targetPoint" />
            <Array as="points">
              <mxPoint x="190" y="500" />
            </Array>
          </mxGeometry>
        </mxCell>
        <mxCell id="rR9tvWjPbD6bjmbwCGUJ-7" value="PROVEEDOR(&lt;u&gt;ID&lt;/u&gt;, NIF, NOMBRE, DIRECCION)" style="text;html=1;strokeColor=none;fillColor=none;align=center;verticalAlign=middle;whiteSpace=wrap;rounded=0;" vertex="1" parent="1">
          <mxGeometry x="-10" y="610" width="430" height="30" as="geometry" />
        </mxCell>
        <mxCell id="rR9tvWjPbD6bjmbwCGUJ-8" value="" style="endArrow=classic;html=1;rounded=0;entryX=0.616;entryY=1.167;entryDx=0;entryDy=0;entryPerimeter=0;" edge="1" parent="1" target="rR9tvWjPbD6bjmbwCGUJ-2">
          <mxGeometry width="50" height="50" relative="1" as="geometry">
            <mxPoint x="170" y="620" as="sourcePoint" />
            <mxPoint x="210" y="570" as="targetPoint" />
          </mxGeometry>
        </mxCell>
      </root>
    </mxGraphModel>
  </diagram>
  <diagram id="trrPij4rrWFQJAUCX8Ol" name="EJERCICIO_2">
    <mxGraphModel dx="2495" dy="974" grid="1" gridSize="10" guides="1" tooltips="1" connect="1" arrows="1" fold="1" page="1" pageScale="1" pageWidth="827" pageHeight="1169" math="0" shadow="0">
      <root>
        <mxCell id="0" />
        <mxCell id="1" parent="0" />
        <mxCell id="JNyvYshrbMljftlyLYhr-3" value="" style="edgeStyle=orthogonalEdgeStyle;rounded=0;orthogonalLoop=1;jettySize=auto;html=1;" parent="1" source="JNyvYshrbMljftlyLYhr-1" target="JNyvYshrbMljftlyLYhr-2" edge="1">
          <mxGeometry relative="1" as="geometry" />
        </mxCell>
        <mxCell id="S7KL5wKU4QsHts-pBkt5-29" value="" style="edgeStyle=orthogonalEdgeStyle;rounded=0;orthogonalLoop=1;jettySize=auto;html=1;" parent="1" source="JNyvYshrbMljftlyLYhr-1" target="S7KL5wKU4QsHts-pBkt5-28" edge="1">
          <mxGeometry relative="1" as="geometry" />
        </mxCell>
        <mxCell id="JNyvYshrbMljftlyLYhr-1" value="CAMIONERO" style="rounded=0;whiteSpace=wrap;html=1;" parent="1" vertex="1">
          <mxGeometry x="30" y="80" width="120" height="60" as="geometry" />
        </mxCell>
        <mxCell id="JNyvYshrbMljftlyLYhr-5" value="" style="edgeStyle=orthogonalEdgeStyle;rounded=0;orthogonalLoop=1;jettySize=auto;html=1;" parent="1" source="JNyvYshrbMljftlyLYhr-2" target="JNyvYshrbMljftlyLYhr-4" edge="1">
          <mxGeometry relative="1" as="geometry" />
        </mxCell>
        <mxCell id="JNyvYshrbMljftlyLYhr-2" value="REPARTIR" style="rhombus;whiteSpace=wrap;html=1;rounded=0;" parent="1" vertex="1">
          <mxGeometry x="50" y="210" width="80" height="80" as="geometry" />
        </mxCell>
        <mxCell id="S7KL5wKU4QsHts-pBkt5-5" value="" style="edgeStyle=orthogonalEdgeStyle;rounded=0;orthogonalLoop=1;jettySize=auto;html=1;" parent="1" source="JNyvYshrbMljftlyLYhr-4" target="S7KL5wKU4QsHts-pBkt5-4" edge="1">
          <mxGeometry relative="1" as="geometry" />
        </mxCell>
        <mxCell id="JNyvYshrbMljftlyLYhr-4" value="PAQUETE" style="whiteSpace=wrap;html=1;rounded=0;" parent="1" vertex="1">
          <mxGeometry x="30" y="380" width="120" height="60" as="geometry" />
        </mxCell>
        <mxCell id="S7KL5wKU4QsHts-pBkt5-1" value="(1,N)" style="text;html=1;strokeColor=none;fillColor=none;align=center;verticalAlign=middle;whiteSpace=wrap;rounded=0;" parent="1" vertex="1">
          <mxGeometry x="10" y="340" width="60" height="30" as="geometry" />
        </mxCell>
        <mxCell id="S7KL5wKU4QsHts-pBkt5-2" value="(1,1)" style="text;html=1;strokeColor=none;fillColor=none;align=center;verticalAlign=middle;whiteSpace=wrap;rounded=0;" parent="1" vertex="1">
          <mxGeometry x="10" y="150" width="60" height="30" as="geometry" />
        </mxCell>
        <mxCell id="S7KL5wKU4QsHts-pBkt5-3" value="(1:N)" style="text;html=1;strokeColor=none;fillColor=none;align=center;verticalAlign=middle;whiteSpace=wrap;rounded=0;" parent="1" vertex="1">
          <mxGeometry x="-20" y="235" width="60" height="30" as="geometry" />
        </mxCell>
        <mxCell id="S7KL5wKU4QsHts-pBkt5-7" value="" style="edgeStyle=orthogonalEdgeStyle;rounded=0;orthogonalLoop=1;jettySize=auto;html=1;" parent="1" source="S7KL5wKU4QsHts-pBkt5-4" target="S7KL5wKU4QsHts-pBkt5-6" edge="1">
          <mxGeometry relative="1" as="geometry" />
        </mxCell>
        <mxCell id="S7KL5wKU4QsHts-pBkt5-4" value="LLEGAR" style="rhombus;whiteSpace=wrap;html=1;rounded=0;" parent="1" vertex="1">
          <mxGeometry x="250" y="370" width="80" height="80" as="geometry" />
        </mxCell>
        <mxCell id="S7KL5wKU4QsHts-pBkt5-6" value="PROVINCIA" style="whiteSpace=wrap;html=1;rounded=0;" parent="1" vertex="1">
          <mxGeometry x="390" y="380" width="120" height="60" as="geometry" />
        </mxCell>
        <mxCell id="S7KL5wKU4QsHts-pBkt5-9" value="SALARIO" style="ellipse;whiteSpace=wrap;html=1;" parent="1" vertex="1">
          <mxGeometry x="20" width="60" height="40" as="geometry" />
        </mxCell>
        <mxCell id="S7KL5wKU4QsHts-pBkt5-10" value="DIRECCION" style="ellipse;whiteSpace=wrap;html=1;" parent="1" vertex="1">
          <mxGeometry x="-70" width="80" height="40" as="geometry" />
        </mxCell>
        <mxCell id="S7KL5wKU4QsHts-pBkt5-11" value="TLF" style="ellipse;whiteSpace=wrap;html=1;" parent="1" vertex="1">
          <mxGeometry x="130" y="40" width="60" height="40" as="geometry" />
        </mxCell>
        <mxCell id="S7KL5wKU4QsHts-pBkt5-12" value="DNI" style="ellipse;whiteSpace=wrap;html=1;" parent="1" vertex="1">
          <mxGeometry x="70" y="40" width="60" height="40" as="geometry" />
        </mxCell>
        <mxCell id="S7KL5wKU4QsHts-pBkt5-13" value="NOMBRE" style="ellipse;whiteSpace=wrap;html=1;" parent="1" vertex="1">
          <mxGeometry y="40" width="60" height="40" as="geometry" />
        </mxCell>
        <mxCell id="S7KL5wKU4QsHts-pBkt5-14" value="ID" style="ellipse;whiteSpace=wrap;html=1;fontStyle=4" parent="1" vertex="1">
          <mxGeometry x="-70" y="40" width="60" height="40" as="geometry" />
        </mxCell>
        <mxCell id="S7KL5wKU4QsHts-pBkt5-15" value="TIPO" style="ellipse;whiteSpace=wrap;html=1;" parent="1" vertex="1">
          <mxGeometry x="510" y="30" width="50" height="40" as="geometry" />
        </mxCell>
        <mxCell id="S7KL5wKU4QsHts-pBkt5-16" value="MODELO" style="ellipse;whiteSpace=wrap;html=1;" parent="1" vertex="1">
          <mxGeometry x="450" y="30" width="56" height="40" as="geometry" />
        </mxCell>
        <mxCell id="S7KL5wKU4QsHts-pBkt5-17" value="LOCALIDAD" style="ellipse;whiteSpace=wrap;html=1;" parent="1" vertex="1">
          <mxGeometry x="90" width="80" height="40" as="geometry" />
        </mxCell>
        <mxCell id="S7KL5wKU4QsHts-pBkt5-18" value="DESTINATARIO" style="ellipse;whiteSpace=wrap;html=1;" parent="1" vertex="1">
          <mxGeometry x="-60" y="440" width="100" height="30" as="geometry" />
        </mxCell>
        <mxCell id="S7KL5wKU4QsHts-pBkt5-19" value="DESCRIP" style="ellipse;whiteSpace=wrap;html=1;" parent="1" vertex="1">
          <mxGeometry x="-40" y="410" width="60" height="30" as="geometry" />
        </mxCell>
        <mxCell id="S7KL5wKU4QsHts-pBkt5-20" value="ID" style="ellipse;whiteSpace=wrap;html=1;fontStyle=4" parent="1" vertex="1">
          <mxGeometry x="-40" y="370" width="60" height="40" as="geometry" />
        </mxCell>
        <mxCell id="S7KL5wKU4QsHts-pBkt5-21" value="MATRICU" style="ellipse;whiteSpace=wrap;html=1;fontStyle=4" parent="1" vertex="1">
          <mxGeometry x="392" y="30" width="44" height="40" as="geometry" />
        </mxCell>
        <mxCell id="S7KL5wKU4QsHts-pBkt5-22" value="ID" style="ellipse;whiteSpace=wrap;html=1;fontStyle=4" parent="1" vertex="1">
          <mxGeometry x="384" y="330" width="60" height="40" as="geometry" />
        </mxCell>
        <mxCell id="S7KL5wKU4QsHts-pBkt5-23" value="PROVINCIA" style="ellipse;whiteSpace=wrap;html=1;" parent="1" vertex="1">
          <mxGeometry x="450" y="330" width="80" height="40" as="geometry" />
        </mxCell>
        <mxCell id="S7KL5wKU4QsHts-pBkt5-24" value="(1,N)" style="text;html=1;strokeColor=none;fillColor=none;align=center;verticalAlign=middle;whiteSpace=wrap;rounded=0;" parent="1" vertex="1">
          <mxGeometry x="140" y="380" width="60" height="30" as="geometry" />
        </mxCell>
        <mxCell id="S7KL5wKU4QsHts-pBkt5-25" value="(1:N)" style="text;html=1;strokeColor=none;fillColor=none;align=center;verticalAlign=middle;whiteSpace=wrap;rounded=0;" parent="1" vertex="1">
          <mxGeometry x="250" y="335" width="60" height="30" as="geometry" />
        </mxCell>
        <mxCell id="S7KL5wKU4QsHts-pBkt5-26" value="(1,1)" style="text;html=1;strokeColor=none;fillColor=none;align=center;verticalAlign=middle;whiteSpace=wrap;rounded=0;" parent="1" vertex="1">
          <mxGeometry x="330" y="380" width="60" height="30" as="geometry" />
        </mxCell>
        <mxCell id="S7KL5wKU4QsHts-pBkt5-31" value="" style="edgeStyle=orthogonalEdgeStyle;rounded=0;orthogonalLoop=1;jettySize=auto;html=1;" parent="1" source="S7KL5wKU4QsHts-pBkt5-28" target="S7KL5wKU4QsHts-pBkt5-30" edge="1">
          <mxGeometry relative="1" as="geometry" />
        </mxCell>
        <mxCell id="S7KL5wKU4QsHts-pBkt5-28" value="CONDUCIR" style="rhombus;whiteSpace=wrap;html=1;rounded=0;" parent="1" vertex="1">
          <mxGeometry x="250" y="70" width="80" height="80" as="geometry" />
        </mxCell>
        <mxCell id="S7KL5wKU4QsHts-pBkt5-30" value="CAMION" style="whiteSpace=wrap;html=1;rounded=0;" parent="1" vertex="1">
          <mxGeometry x="390" y="80" width="120" height="60" as="geometry" />
        </mxCell>
        <mxCell id="S7KL5wKU4QsHts-pBkt5-32" value="(1,N)" style="text;html=1;strokeColor=none;fillColor=none;align=center;verticalAlign=middle;whiteSpace=wrap;rounded=0;" parent="1" vertex="1">
          <mxGeometry x="330" y="120" width="60" height="30" as="geometry" />
        </mxCell>
        <mxCell id="S7KL5wKU4QsHts-pBkt5-33" value="(1,N)" style="text;html=1;strokeColor=none;fillColor=none;align=center;verticalAlign=middle;whiteSpace=wrap;rounded=0;" parent="1" vertex="1">
          <mxGeometry x="150" y="115" width="60" height="30" as="geometry" />
        </mxCell>
        <mxCell id="S7KL5wKU4QsHts-pBkt5-34" value="(N:M)" style="text;html=1;strokeColor=none;fillColor=none;align=center;verticalAlign=middle;whiteSpace=wrap;rounded=0;" parent="1" vertex="1">
          <mxGeometry x="260" y="160" width="60" height="30" as="geometry" />
        </mxCell>
        <mxCell id="S7KL5wKU4QsHts-pBkt5-35" value="POTENCIA" style="ellipse;whiteSpace=wrap;html=1;" parent="1" vertex="1">
          <mxGeometry x="560" y="30" width="70" height="40" as="geometry" />
        </mxCell>
        <mxCell id="S7KL5wKU4QsHts-pBkt5-37" value="" style="edgeStyle=orthogonalEdgeStyle;rounded=0;orthogonalLoop=1;jettySize=auto;html=1;" parent="1" source="S7KL5wKU4QsHts-pBkt5-36" target="S7KL5wKU4QsHts-pBkt5-28" edge="1">
          <mxGeometry relative="1" as="geometry" />
        </mxCell>
        <mxCell id="S7KL5wKU4QsHts-pBkt5-36" value="FECHAS" style="ellipse;whiteSpace=wrap;html=1;" parent="1" vertex="1">
          <mxGeometry x="260" y="10" width="60" height="30" as="geometry" />
        </mxCell>
        <mxCell id="ARIREFBATPGym-2U0CHt-1" value="CAMIONERO(&lt;u&gt;ID&lt;/u&gt;, NOMBRE, DNI, TLF, DIRECCION, SALARIO, LOCALIDAD, ID_PAQUETE)" style="text;html=1;strokeColor=none;fillColor=none;align=center;verticalAlign=middle;whiteSpace=wrap;rounded=0;" vertex="1" parent="1">
          <mxGeometry x="-10" y="540" width="580" height="30" as="geometry" />
        </mxCell>
        <mxCell id="ARIREFBATPGym-2U0CHt-2" value="CAMION(&lt;u&gt;MATRICULA,&lt;/u&gt; MODELO, TIPO, POTENCIA)" style="text;html=1;strokeColor=none;fillColor=none;align=center;verticalAlign=middle;whiteSpace=wrap;rounded=0;" vertex="1" parent="1">
          <mxGeometry x="-120" y="680" width="580" height="30" as="geometry" />
        </mxCell>
        <mxCell id="ARIREFBATPGym-2U0CHt-3" value="CAMIONERO_CAMION(&lt;u&gt;ID_CAMIONERO&lt;/u&gt;,&amp;nbsp;&lt;u&gt;MATRICULA&lt;/u&gt;,&amp;nbsp; FECHAS)" style="text;html=1;strokeColor=none;fillColor=none;align=center;verticalAlign=middle;whiteSpace=wrap;rounded=0;" vertex="1" parent="1">
          <mxGeometry x="-80" y="620" width="580" height="30" as="geometry" />
        </mxCell>
        <mxCell id="ARIREFBATPGym-2U0CHt-4" value="" style="endArrow=classic;html=1;rounded=0;exitX=0.5;exitY=0;exitDx=0;exitDy=0;entryX=0.676;entryY=1.067;entryDx=0;entryDy=0;entryPerimeter=0;" edge="1" parent="1" source="ARIREFBATPGym-2U0CHt-9" target="ARIREFBATPGym-2U0CHt-7">
          <mxGeometry width="50" height="50" relative="1" as="geometry">
            <mxPoint x="450" y="880" as="sourcePoint" />
            <mxPoint x="370" y="830" as="targetPoint" />
            <Array as="points">
              <mxPoint x="310" y="840" />
            </Array>
          </mxGeometry>
        </mxCell>
        <mxCell id="ARIREFBATPGym-2U0CHt-5" value="" style="endArrow=classic;html=1;rounded=0;exitX=0.641;exitY=1;exitDx=0;exitDy=0;exitPerimeter=0;entryX=0.438;entryY=0.067;entryDx=0;entryDy=0;entryPerimeter=0;" edge="1" parent="1" source="ARIREFBATPGym-2U0CHt-3" target="ARIREFBATPGym-2U0CHt-2">
          <mxGeometry width="50" height="50" relative="1" as="geometry">
            <mxPoint x="510" y="750" as="sourcePoint" />
            <mxPoint x="130" y="680" as="targetPoint" />
            <Array as="points">
              <mxPoint x="290" y="670" />
              <mxPoint x="210" y="660" />
            </Array>
          </mxGeometry>
        </mxCell>
        <mxCell id="ARIREFBATPGym-2U0CHt-7" value="PAQUETE(&lt;u&gt;ID&lt;/u&gt;, DESCRIPCION, DESTINATARIO, ID_PROVINCIA, ID_CAMIONERO)" style="text;html=1;strokeColor=none;fillColor=none;align=center;verticalAlign=middle;whiteSpace=wrap;rounded=0;" vertex="1" parent="1">
          <mxGeometry x="-70" y="780" width="580" height="30" as="geometry" />
        </mxCell>
        <mxCell id="ARIREFBATPGym-2U0CHt-8" value="" style="endArrow=classic;html=1;rounded=0;entryX=0.855;entryY=0.967;entryDx=0;entryDy=0;entryPerimeter=0;" edge="1" parent="1" target="ARIREFBATPGym-2U0CHt-1">
          <mxGeometry width="50" height="50" relative="1" as="geometry">
            <mxPoint x="155" y="780" as="sourcePoint" />
            <mxPoint x="500" y="730" as="targetPoint" />
            <Array as="points">
              <mxPoint x="480" y="760" />
            </Array>
          </mxGeometry>
        </mxCell>
        <mxCell id="ARIREFBATPGym-2U0CHt-9" value="PROVINCIA(&lt;u&gt;ID&lt;/u&gt;, PROVINCIA)" style="text;html=1;strokeColor=none;fillColor=none;align=center;verticalAlign=middle;whiteSpace=wrap;rounded=0;" vertex="1" parent="1">
          <mxGeometry x="-160" y="860" width="580" height="30" as="geometry" />
        </mxCell>
        <mxCell id="ARIREFBATPGym-2U0CHt-10" value="" style="endArrow=classic;html=1;rounded=0;entryX=0.226;entryY=0.967;entryDx=0;entryDy=0;entryPerimeter=0;" edge="1" parent="1" target="ARIREFBATPGym-2U0CHt-1">
          <mxGeometry width="50" height="50" relative="1" as="geometry">
            <mxPoint x="180" y="630" as="sourcePoint" />
            <mxPoint x="230" y="580" as="targetPoint" />
          </mxGeometry>
        </mxCell>
        <mxCell id="rYhxsRTWlAM0P4miZ-3B-1" value="" style="endArrow=classic;html=1;rounded=0;exitX=0.816;exitY=1;exitDx=0;exitDy=0;exitPerimeter=0;entryX=0.089;entryY=1.024;entryDx=0;entryDy=0;entryPerimeter=0;" edge="1" parent="1" source="ARIREFBATPGym-2U0CHt-7" target="ARIREFBATPGym-2U0CHt-1">
          <mxGeometry width="50" height="50" relative="1" as="geometry">
            <mxPoint x="403" y="870" as="sourcePoint" />
            <mxPoint x="-410" y="750" as="targetPoint" />
            <Array as="points">
              <mxPoint x="240" y="980" />
              <mxPoint x="-80" y="940" />
            </Array>
          </mxGeometry>
        </mxCell>
      </root>
    </mxGraphModel>
  </diagram>
  <diagram id="0KzWVjWybc--GwWSjgSP" name="EJERCICIO_3">
    <mxGraphModel dx="2245" dy="828" grid="1" gridSize="10" guides="1" tooltips="1" connect="1" arrows="1" fold="1" page="1" pageScale="1" pageWidth="827" pageHeight="1169" math="0" shadow="0">
      <root>
        <mxCell id="0" />
        <mxCell id="1" parent="0" />
        <mxCell id="yr5188m7q_7XKk03EJ8A-3" value="" style="edgeStyle=orthogonalEdgeStyle;rounded=0;orthogonalLoop=1;jettySize=auto;html=1;" parent="1" source="cwlPh7n1QkSW4Kihe2rL-1" target="yr5188m7q_7XKk03EJ8A-2" edge="1">
          <mxGeometry relative="1" as="geometry" />
        </mxCell>
        <mxCell id="cwlPh7n1QkSW4Kihe2rL-1" value="PROFESOR" style="rounded=0;whiteSpace=wrap;html=1;" parent="1" vertex="1">
          <mxGeometry x="130" y="60" width="120" height="60" as="geometry" />
        </mxCell>
        <mxCell id="cwlPh7n1QkSW4Kihe2rL-3" value="NOMBRE" style="ellipse;whiteSpace=wrap;html=1;" parent="1" vertex="1">
          <mxGeometry x="30" y="390" width="80" height="40" as="geometry" />
        </mxCell>
        <mxCell id="cwlPh7n1QkSW4Kihe2rL-4" value="ID" style="ellipse;whiteSpace=wrap;html=1;fontStyle=4" parent="1" vertex="1">
          <mxGeometry x="30" y="340" width="80" height="40" as="geometry" />
        </mxCell>
        <mxCell id="cwlPh7n1QkSW4Kihe2rL-5" value="DIRECC" style="ellipse;whiteSpace=wrap;html=1;" parent="1" vertex="1">
          <mxGeometry x="30" y="150" width="80" height="40" as="geometry" />
        </mxCell>
        <mxCell id="cwlPh7n1QkSW4Kihe2rL-6" value="DNI" style="ellipse;whiteSpace=wrap;html=1;" parent="1" vertex="1">
          <mxGeometry x="30" y="110" width="80" height="40" as="geometry" />
        </mxCell>
        <mxCell id="cwlPh7n1QkSW4Kihe2rL-7" value="NOMBRE" style="ellipse;whiteSpace=wrap;html=1;" parent="1" vertex="1">
          <mxGeometry x="30" y="70" width="80" height="40" as="geometry" />
        </mxCell>
        <mxCell id="cwlPh7n1QkSW4Kihe2rL-8" value="ID" style="ellipse;whiteSpace=wrap;html=1;fontStyle=4" parent="1" vertex="1">
          <mxGeometry x="30" y="30" width="80" height="40" as="geometry" />
        </mxCell>
        <mxCell id="cwlPh7n1QkSW4Kihe2rL-9" value="Text" style="text;html=1;strokeColor=none;fillColor=none;align=center;verticalAlign=middle;whiteSpace=wrap;rounded=0;" parent="1" vertex="1">
          <mxGeometry x="-270" y="250" width="60" height="30" as="geometry" />
        </mxCell>
        <mxCell id="cwlPh7n1QkSW4Kihe2rL-11" value="(1:N)" style="text;html=1;strokeColor=none;fillColor=none;align=center;verticalAlign=middle;whiteSpace=wrap;rounded=0;" parent="1" vertex="1">
          <mxGeometry x="580" y="195" width="60" height="30" as="geometry" />
        </mxCell>
        <mxCell id="cwlPh7n1QkSW4Kihe2rL-12" value="(1,N)" style="text;html=1;strokeColor=none;fillColor=none;align=center;verticalAlign=middle;whiteSpace=wrap;rounded=0;" parent="1" vertex="1">
          <mxGeometry x="460" y="320" width="60" height="30" as="geometry" />
        </mxCell>
        <mxCell id="cwlPh7n1QkSW4Kihe2rL-13" value="(1,1)" style="text;html=1;strokeColor=none;fillColor=none;align=center;verticalAlign=middle;whiteSpace=wrap;rounded=0;" parent="1" vertex="1">
          <mxGeometry x="550" y="340" width="60" height="30" as="geometry" />
        </mxCell>
        <mxCell id="cwlPh7n1QkSW4Kihe2rL-14" value="(1,1)" style="text;html=1;strokeColor=none;fillColor=none;align=center;verticalAlign=middle;whiteSpace=wrap;rounded=0;" parent="1" vertex="1">
          <mxGeometry x="430" y="410" width="60" height="30" as="geometry" />
        </mxCell>
        <mxCell id="yr5188m7q_7XKk03EJ8A-1" value="TLF" style="ellipse;whiteSpace=wrap;html=1;" parent="1" vertex="1">
          <mxGeometry x="30" y="190" width="80" height="40" as="geometry" />
        </mxCell>
        <mxCell id="yr5188m7q_7XKk03EJ8A-5" value="" style="edgeStyle=orthogonalEdgeStyle;rounded=0;orthogonalLoop=1;jettySize=auto;html=1;" parent="1" source="yr5188m7q_7XKk03EJ8A-2" target="yr5188m7q_7XKk03EJ8A-4" edge="1">
          <mxGeometry relative="1" as="geometry" />
        </mxCell>
        <mxCell id="yr5188m7q_7XKk03EJ8A-2" value="IMPARTIR" style="rhombus;whiteSpace=wrap;html=1;rounded=0;" parent="1" vertex="1">
          <mxGeometry x="150" y="190" width="80" height="80" as="geometry" />
        </mxCell>
        <mxCell id="yr5188m7q_7XKk03EJ8A-7" value="" style="edgeStyle=orthogonalEdgeStyle;rounded=0;orthogonalLoop=1;jettySize=auto;html=1;" parent="1" source="yr5188m7q_7XKk03EJ8A-4" target="yr5188m7q_7XKk03EJ8A-6" edge="1">
          <mxGeometry relative="1" as="geometry" />
        </mxCell>
        <mxCell id="yr5188m7q_7XKk03EJ8A-4" value="MODULO" style="whiteSpace=wrap;html=1;rounded=0;" parent="1" vertex="1">
          <mxGeometry x="130" y="360" width="120" height="60" as="geometry" />
        </mxCell>
        <mxCell id="yr5188m7q_7XKk03EJ8A-9" value="" style="edgeStyle=orthogonalEdgeStyle;rounded=0;orthogonalLoop=1;jettySize=auto;html=1;" parent="1" source="yr5188m7q_7XKk03EJ8A-6" target="yr5188m7q_7XKk03EJ8A-8" edge="1">
          <mxGeometry relative="1" as="geometry" />
        </mxCell>
        <mxCell id="yr5188m7q_7XKk03EJ8A-6" value="MATRICULAR" style="rhombus;whiteSpace=wrap;html=1;rounded=0;" parent="1" vertex="1">
          <mxGeometry x="350" y="350" width="80" height="80" as="geometry" />
        </mxCell>
        <mxCell id="yr5188m7q_7XKk03EJ8A-20" value="" style="edgeStyle=orthogonalEdgeStyle;rounded=0;orthogonalLoop=1;jettySize=auto;html=1;" parent="1" source="yr5188m7q_7XKk03EJ8A-8" target="yr5188m7q_7XKk03EJ8A-19" edge="1">
          <mxGeometry relative="1" as="geometry" />
        </mxCell>
        <mxCell id="yr5188m7q_7XKk03EJ8A-8" value="ALUMNO" style="whiteSpace=wrap;html=1;rounded=0;" parent="1" vertex="1">
          <mxGeometry x="490" y="360" width="120" height="60" as="geometry" />
        </mxCell>
        <mxCell id="yr5188m7q_7XKk03EJ8A-10" value="(1,N)" style="text;html=1;strokeColor=none;fillColor=none;align=center;verticalAlign=middle;whiteSpace=wrap;rounded=0;" parent="1" vertex="1">
          <mxGeometry x="250" y="400" width="60" height="30" as="geometry" />
        </mxCell>
        <mxCell id="yr5188m7q_7XKk03EJ8A-11" value="(1:N)" style="text;html=1;strokeColor=none;fillColor=none;align=center;verticalAlign=middle;whiteSpace=wrap;rounded=0;" parent="1" vertex="1">
          <mxGeometry x="360" y="440" width="60" height="30" as="geometry" />
        </mxCell>
        <mxCell id="yr5188m7q_7XKk03EJ8A-12" value="(1,1)" style="text;html=1;strokeColor=none;fillColor=none;align=center;verticalAlign=middle;whiteSpace=wrap;rounded=0;" parent="1" vertex="1">
          <mxGeometry x="210" y="130" width="60" height="30" as="geometry" />
        </mxCell>
        <mxCell id="yr5188m7q_7XKk03EJ8A-13" value="(1,N)" style="text;html=1;strokeColor=none;fillColor=none;align=center;verticalAlign=middle;whiteSpace=wrap;rounded=0;" parent="1" vertex="1">
          <mxGeometry x="200" y="330" width="60" height="30" as="geometry" />
        </mxCell>
        <mxCell id="yr5188m7q_7XKk03EJ8A-14" value="(1:N)" style="text;html=1;strokeColor=none;fillColor=none;align=center;verticalAlign=middle;whiteSpace=wrap;rounded=0;" parent="1" vertex="1">
          <mxGeometry x="230" y="210" width="60" height="30" as="geometry" />
        </mxCell>
        <mxCell id="yr5188m7q_7XKk03EJ8A-15" value="FECHNAC" style="ellipse;whiteSpace=wrap;html=1;" parent="1" vertex="1">
          <mxGeometry x="620" y="460" width="80" height="40" as="geometry" />
        </mxCell>
        <mxCell id="yr5188m7q_7XKk03EJ8A-16" value="APELLIDOS" style="ellipse;whiteSpace=wrap;html=1;" parent="1" vertex="1">
          <mxGeometry x="620" y="420" width="80" height="40" as="geometry" />
        </mxCell>
        <mxCell id="yr5188m7q_7XKk03EJ8A-17" value="NOMBRE" style="ellipse;whiteSpace=wrap;html=1;" parent="1" vertex="1">
          <mxGeometry x="620" y="380" width="80" height="40" as="geometry" />
        </mxCell>
        <mxCell id="yr5188m7q_7XKk03EJ8A-18" value="ID" style="ellipse;whiteSpace=wrap;html=1;fontStyle=4" parent="1" vertex="1">
          <mxGeometry x="620" y="340" width="80" height="40" as="geometry" />
        </mxCell>
        <mxCell id="yr5188m7q_7XKk03EJ8A-19" value="DELEGADO" style="rhombus;whiteSpace=wrap;html=1;rounded=0;" parent="1" vertex="1">
          <mxGeometry x="570" y="240" width="80" height="80" as="geometry" />
        </mxCell>
        <mxCell id="yr5188m7q_7XKk03EJ8A-21" value="" style="endArrow=classic;html=1;rounded=0;exitX=0;exitY=0.5;exitDx=0;exitDy=0;" parent="1" source="yr5188m7q_7XKk03EJ8A-19" edge="1">
          <mxGeometry width="50" height="50" relative="1" as="geometry">
            <mxPoint x="460" y="270" as="sourcePoint" />
            <mxPoint x="520" y="350" as="targetPoint" />
            <Array as="points">
              <mxPoint x="520" y="280" />
            </Array>
          </mxGeometry>
        </mxCell>
        <mxCell id="JKq4tpnOVgAcqZBmpRi6-1" value="PROFESOR(&lt;u&gt;ID&lt;/u&gt;, NOMBRE, DNI, DIRECCION, TLF)" style="text;html=1;strokeColor=none;fillColor=none;align=center;verticalAlign=middle;whiteSpace=wrap;rounded=0;" vertex="1" parent="1">
          <mxGeometry y="570" width="550" height="30" as="geometry" />
        </mxCell>
        <mxCell id="JKq4tpnOVgAcqZBmpRi6-2" value="MODULO(&lt;u&gt;ID&lt;/u&gt;, NOMBRE, ID_PROFESOR, ID_ALUMNO)" style="text;html=1;strokeColor=none;fillColor=none;align=center;verticalAlign=middle;whiteSpace=wrap;rounded=0;" vertex="1" parent="1">
          <mxGeometry x="-30" y="660" width="550" height="30" as="geometry" />
        </mxCell>
        <mxCell id="JKq4tpnOVgAcqZBmpRi6-3" value="ALUMNO(&lt;u&gt;ID&lt;/u&gt;, NOMBRE, APELLIDOS, FECHA_NAC, ID_DELEGADO)" style="text;html=1;strokeColor=none;fillColor=none;align=center;verticalAlign=middle;whiteSpace=wrap;rounded=0;" vertex="1" parent="1">
          <mxGeometry x="-10" y="740" width="550" height="30" as="geometry" />
        </mxCell>
        <mxCell id="JKq4tpnOVgAcqZBmpRi6-5" value="" style="endArrow=classic;html=1;rounded=0;exitX=0.7;exitY=0.933;exitDx=0;exitDy=0;exitPerimeter=0;entryX=0.302;entryY=-0.067;entryDx=0;entryDy=0;entryPerimeter=0;" edge="1" parent="1" source="JKq4tpnOVgAcqZBmpRi6-2" target="JKq4tpnOVgAcqZBmpRi6-3">
          <mxGeometry width="50" height="50" relative="1" as="geometry">
            <mxPoint x="480" y="740" as="sourcePoint" />
            <mxPoint x="190" y="720" as="targetPoint" />
            <Array as="points">
              <mxPoint x="210" y="690" />
            </Array>
          </mxGeometry>
        </mxCell>
        <mxCell id="JKq4tpnOVgAcqZBmpRi6-6" value="" style="endArrow=classic;html=1;rounded=0;entryX=0.4;entryY=1.033;entryDx=0;entryDy=0;entryPerimeter=0;" edge="1" parent="1" target="JKq4tpnOVgAcqZBmpRi6-1">
          <mxGeometry width="50" height="50" relative="1" as="geometry">
            <mxPoint x="300" y="660" as="sourcePoint" />
            <mxPoint x="350" y="610" as="targetPoint" />
          </mxGeometry>
        </mxCell>
        <mxCell id="WS2f1qnfW7HR4CLpeLFE-1" value="" style="endArrow=classic;html=1;rounded=0;exitX=0.75;exitY=1;exitDx=0;exitDy=0;entryX=0.275;entryY=1;entryDx=0;entryDy=0;entryPerimeter=0;" edge="1" parent="1">
          <mxGeometry width="50" height="50" relative="1" as="geometry">
            <mxPoint x="405.62" y="770" as="sourcePoint" />
            <mxPoint x="144.37" y="770" as="targetPoint" />
            <Array as="points">
              <mxPoint x="406" y="810" />
              <mxPoint x="150" y="810" />
            </Array>
          </mxGeometry>
        </mxCell>
      </root>
    </mxGraphModel>
  </diagram>
  <diagram id="xE_BhDXGk7usmcPdGVNH" name="EJERCICIO_4">
    <mxGraphModel dx="2245" dy="828" grid="1" gridSize="10" guides="1" tooltips="1" connect="1" arrows="1" fold="1" page="1" pageScale="1" pageWidth="827" pageHeight="1169" math="0" shadow="0">
      <root>
        <mxCell id="0" />
        <mxCell id="1" parent="0" />
        <mxCell id="TIsiH6FwjNlvc23i40MU-23" value="" style="edgeStyle=orthogonalEdgeStyle;rounded=0;orthogonalLoop=1;jettySize=auto;html=1;" parent="1" source="EtJ7-CIMk_uEpNiktaMg-1" target="TIsiH6FwjNlvc23i40MU-22" edge="1">
          <mxGeometry relative="1" as="geometry" />
        </mxCell>
        <mxCell id="EtJ7-CIMk_uEpNiktaMg-1" value="COCHE" style="rounded=0;whiteSpace=wrap;html=1;" parent="1" vertex="1">
          <mxGeometry x="70" y="110" width="120" height="60" as="geometry" />
        </mxCell>
        <mxCell id="EtJ7-CIMk_uEpNiktaMg-2" value="CIUDAD" style="ellipse;whiteSpace=wrap;html=1;" parent="1" vertex="1">
          <mxGeometry x="580" y="220" width="60" height="40" as="geometry" />
        </mxCell>
        <mxCell id="EtJ7-CIMk_uEpNiktaMg-3" value="NIF" style="ellipse;whiteSpace=wrap;html=1;" parent="1" vertex="1">
          <mxGeometry x="580" y="180" width="60" height="40" as="geometry" />
        </mxCell>
        <mxCell id="y1-ph7n8C1F2KaRHsiGv-1" value="" style="edgeStyle=orthogonalEdgeStyle;rounded=0;orthogonalLoop=1;jettySize=auto;html=1;" parent="1" source="EtJ7-CIMk_uEpNiktaMg-4" target="TIsiH6FwjNlvc23i40MU-1" edge="1">
          <mxGeometry relative="1" as="geometry" />
        </mxCell>
        <mxCell id="EtJ7-CIMk_uEpNiktaMg-4" value="PRECIO" style="ellipse;whiteSpace=wrap;html=1;" parent="1" vertex="1">
          <mxGeometry x="300" y="20" width="60" height="40" as="geometry" />
        </mxCell>
        <mxCell id="EtJ7-CIMk_uEpNiktaMg-5" value="COLOR" style="ellipse;whiteSpace=wrap;html=1;" parent="1" vertex="1">
          <mxGeometry x="-10" y="180" width="60" height="40" as="geometry" />
        </mxCell>
        <mxCell id="EtJ7-CIMk_uEpNiktaMg-6" value="MODELO" style="ellipse;whiteSpace=wrap;html=1;" parent="1" vertex="1">
          <mxGeometry x="-10" y="140" width="60" height="40" as="geometry" />
        </mxCell>
        <mxCell id="EtJ7-CIMk_uEpNiktaMg-7" value="MARCA" style="ellipse;whiteSpace=wrap;html=1;" parent="1" vertex="1">
          <mxGeometry x="-10" y="100" width="60" height="40" as="geometry" />
        </mxCell>
        <mxCell id="EtJ7-CIMk_uEpNiktaMg-8" value="MATRI" style="ellipse;whiteSpace=wrap;html=1;fontStyle=4" parent="1" vertex="1">
          <mxGeometry x="-10" y="60" width="60" height="40" as="geometry" />
        </mxCell>
        <mxCell id="TIsiH6FwjNlvc23i40MU-1" value="COMPRAR" style="rhombus;whiteSpace=wrap;html=1;rounded=0;" parent="1" vertex="1">
          <mxGeometry x="290" y="100" width="80" height="80" as="geometry" />
        </mxCell>
        <mxCell id="TIsiH6FwjNlvc23i40MU-3" value="CLIENTE" style="whiteSpace=wrap;html=1;rounded=0;" parent="1" vertex="1">
          <mxGeometry x="460" y="110" width="120" height="60" as="geometry" />
        </mxCell>
        <mxCell id="TIsiH6FwjNlvc23i40MU-5" value="DIR" style="ellipse;whiteSpace=wrap;html=1;" parent="1" vertex="1">
          <mxGeometry x="580" y="140" width="60" height="40" as="geometry" />
        </mxCell>
        <mxCell id="TIsiH6FwjNlvc23i40MU-6" value="NOMBRE" style="ellipse;whiteSpace=wrap;html=1;" parent="1" vertex="1">
          <mxGeometry x="580" y="100" width="60" height="40" as="geometry" />
        </mxCell>
        <mxCell id="TIsiH6FwjNlvc23i40MU-7" value="ID" style="ellipse;whiteSpace=wrap;html=1;fontStyle=4" parent="1" vertex="1">
          <mxGeometry x="580" y="60" width="60" height="40" as="geometry" />
        </mxCell>
        <mxCell id="TIsiH6FwjNlvc23i40MU-10" value="ID" style="ellipse;whiteSpace=wrap;html=1;fontStyle=4" parent="1" vertex="1">
          <mxGeometry y="390" width="70" height="40" as="geometry" />
        </mxCell>
        <mxCell id="TIsiH6FwjNlvc23i40MU-11" value="TLF" style="ellipse;whiteSpace=wrap;html=1;" parent="1" vertex="1">
          <mxGeometry x="575" y="260" width="70" height="40" as="geometry" />
        </mxCell>
        <mxCell id="TIsiH6FwjNlvc23i40MU-13" value="(1,N)" style="text;html=1;strokeColor=none;fillColor=none;align=center;verticalAlign=middle;whiteSpace=wrap;rounded=0;" parent="1" vertex="1">
          <mxGeometry x="190" y="150" width="60" height="30" as="geometry" />
        </mxCell>
        <mxCell id="TIsiH6FwjNlvc23i40MU-16" value="(1,N)" style="text;html=1;strokeColor=none;fillColor=none;align=center;verticalAlign=middle;whiteSpace=wrap;rounded=0;" parent="1" vertex="1">
          <mxGeometry x="130" y="370" width="60" height="30" as="geometry" />
        </mxCell>
        <mxCell id="TIsiH6FwjNlvc23i40MU-18" value="(1,1)" style="text;html=1;strokeColor=none;fillColor=none;align=center;verticalAlign=middle;whiteSpace=wrap;rounded=0;" parent="1" vertex="1">
          <mxGeometry x="390" y="145" width="60" height="30" as="geometry" />
        </mxCell>
        <mxCell id="TIsiH6FwjNlvc23i40MU-19" value="(1:N)" style="text;html=1;strokeColor=none;fillColor=none;align=center;verticalAlign=middle;whiteSpace=wrap;rounded=0;" parent="1" vertex="1">
          <mxGeometry x="290" y="185" width="60" height="30" as="geometry" />
        </mxCell>
        <mxCell id="TIsiH6FwjNlvc23i40MU-20" value="" style="endArrow=classic;html=1;rounded=0;exitX=0;exitY=0.5;exitDx=0;exitDy=0;entryX=1;entryY=0.5;entryDx=0;entryDy=0;" parent="1" source="TIsiH6FwjNlvc23i40MU-3" target="TIsiH6FwjNlvc23i40MU-1" edge="1">
          <mxGeometry width="50" height="50" relative="1" as="geometry">
            <mxPoint x="390" y="430" as="sourcePoint" />
            <mxPoint x="440" y="380" as="targetPoint" />
          </mxGeometry>
        </mxCell>
        <mxCell id="TIsiH6FwjNlvc23i40MU-21" value="" style="endArrow=classic;html=1;rounded=0;exitX=0;exitY=0.5;exitDx=0;exitDy=0;" parent="1" source="TIsiH6FwjNlvc23i40MU-1" edge="1">
          <mxGeometry width="50" height="50" relative="1" as="geometry">
            <mxPoint x="390" y="430" as="sourcePoint" />
            <mxPoint x="200" y="140" as="targetPoint" />
          </mxGeometry>
        </mxCell>
        <mxCell id="TIsiH6FwjNlvc23i40MU-25" value="" style="edgeStyle=orthogonalEdgeStyle;rounded=0;orthogonalLoop=1;jettySize=auto;html=1;" parent="1" source="TIsiH6FwjNlvc23i40MU-22" target="TIsiH6FwjNlvc23i40MU-24" edge="1">
          <mxGeometry relative="1" as="geometry" />
        </mxCell>
        <mxCell id="TIsiH6FwjNlvc23i40MU-22" value="REALIZAR" style="rhombus;whiteSpace=wrap;html=1;rounded=0;" parent="1" vertex="1">
          <mxGeometry x="90" y="240" width="80" height="80" as="geometry" />
        </mxCell>
        <mxCell id="TIsiH6FwjNlvc23i40MU-24" value="REVISION" style="whiteSpace=wrap;html=1;rounded=0;" parent="1" vertex="1">
          <mxGeometry x="70" y="410" width="120" height="60" as="geometry" />
        </mxCell>
        <mxCell id="TIsiH6FwjNlvc23i40MU-26" value="(1,1)" style="text;html=1;strokeColor=none;fillColor=none;align=center;verticalAlign=middle;whiteSpace=wrap;rounded=0;" parent="1" vertex="1">
          <mxGeometry x="130" y="175" width="60" height="30" as="geometry" />
        </mxCell>
        <mxCell id="TIsiH6FwjNlvc23i40MU-27" value="(1:N)" style="text;html=1;strokeColor=none;fillColor=none;align=center;verticalAlign=middle;whiteSpace=wrap;rounded=0;" parent="1" vertex="1">
          <mxGeometry x="170" y="270" width="60" height="30" as="geometry" />
        </mxCell>
        <mxCell id="TIsiH6FwjNlvc23i40MU-29" value="OBSERVACIONES" style="ellipse;whiteSpace=wrap;html=1;" parent="1" vertex="1">
          <mxGeometry x="-40" y="430" width="110" height="40" as="geometry" />
        </mxCell>
        <mxCell id="Mdhxg9BanodObnd-pMYa-1" value="COCHE(&lt;u&gt;MATRICULA&lt;/u&gt;, MARCA, MODELO, COLOR, ID_CLIENTE)" style="text;html=1;strokeColor=none;fillColor=none;align=center;verticalAlign=middle;whiteSpace=wrap;rounded=0;" vertex="1" parent="1">
          <mxGeometry x="10" y="585" width="560" height="30" as="geometry" />
        </mxCell>
        <mxCell id="Mdhxg9BanodObnd-pMYa-2" value="REVISION(&lt;u&gt;ID, &lt;/u&gt;OBSERVACIONES, MATRICULA)" style="text;html=1;strokeColor=none;fillColor=none;align=center;verticalAlign=middle;whiteSpace=wrap;rounded=0;" vertex="1" parent="1">
          <mxGeometry x="-30" y="670" width="560" height="30" as="geometry" />
        </mxCell>
        <mxCell id="Mdhxg9BanodObnd-pMYa-3" value="CLIENTE(&lt;u&gt;ID, &lt;/u&gt;NOMBRE, DIR, NIF, CIUDAD, TLF)" style="text;html=1;strokeColor=none;fillColor=none;align=center;verticalAlign=middle;whiteSpace=wrap;rounded=0;" vertex="1" parent="1">
          <mxGeometry x="-30" y="770" width="560" height="30" as="geometry" />
        </mxCell>
        <mxCell id="Mdhxg9BanodObnd-pMYa-4" value="" style="endArrow=classic;html=1;rounded=0;" edge="1" parent="1">
          <mxGeometry width="50" height="50" relative="1" as="geometry">
            <mxPoint x="450" y="440" as="sourcePoint" />
            <mxPoint x="500" y="390" as="targetPoint" />
          </mxGeometry>
        </mxCell>
        <mxCell id="Mdhxg9BanodObnd-pMYa-5" value="" style="endArrow=classic;html=1;rounded=0;exitX=0.75;exitY=1;exitDx=0;exitDy=0;entryX=0.386;entryY=-0.033;entryDx=0;entryDy=0;entryPerimeter=0;" edge="1" parent="1" source="Mdhxg9BanodObnd-pMYa-1" target="Mdhxg9BanodObnd-pMYa-3">
          <mxGeometry width="50" height="50" relative="1" as="geometry">
            <mxPoint x="460" y="690" as="sourcePoint" />
            <mxPoint x="510" y="640" as="targetPoint" />
            <Array as="points">
              <mxPoint x="380" y="720" />
            </Array>
          </mxGeometry>
        </mxCell>
        <mxCell id="Mdhxg9BanodObnd-pMYa-6" value="" style="endArrow=classic;html=1;rounded=0;entryX=0.38;entryY=0.933;entryDx=0;entryDy=0;entryPerimeter=0;" edge="1" parent="1" target="Mdhxg9BanodObnd-pMYa-1">
          <mxGeometry width="50" height="50" relative="1" as="geometry">
            <mxPoint x="340" y="680" as="sourcePoint" />
            <mxPoint x="390" y="630" as="targetPoint" />
            <Array as="points">
              <mxPoint x="220" y="640" />
            </Array>
          </mxGeometry>
        </mxCell>
      </root>
    </mxGraphModel>
  </diagram>
  <diagram id="donrk2GYzB8G1ly8KKqA" name="EJERCICIO_5">
    <mxGraphModel dx="2245" dy="1997" grid="1" gridSize="10" guides="1" tooltips="1" connect="1" arrows="1" fold="1" page="1" pageScale="1" pageWidth="827" pageHeight="1169" math="0" shadow="0">
      <root>
        <mxCell id="0" />
        <mxCell id="1" parent="0" />
        <mxCell id="r82BjlyDpo2YeeyP67Vo-3" value="DIR" style="ellipse;whiteSpace=wrap;html=1;" parent="1" vertex="1">
          <mxGeometry x="250" y="30" width="80" height="30" as="geometry" />
        </mxCell>
        <mxCell id="r82BjlyDpo2YeeyP67Vo-4" value="APELLIDOS" style="ellipse;whiteSpace=wrap;html=1;" parent="1" vertex="1">
          <mxGeometry x="160" y="30" width="80" height="30" as="geometry" />
        </mxCell>
        <mxCell id="r82BjlyDpo2YeeyP67Vo-5" value="NOMBRE" style="ellipse;whiteSpace=wrap;html=1;" parent="1" vertex="1">
          <mxGeometry x="70" y="30" width="80" height="30" as="geometry" />
        </mxCell>
        <mxCell id="r82BjlyDpo2YeeyP67Vo-6" value="ID" style="ellipse;whiteSpace=wrap;html=1;fontStyle=4" parent="1" vertex="1">
          <mxGeometry x="-20" y="30" width="80" height="30" as="geometry" />
        </mxCell>
        <mxCell id="r82BjlyDpo2YeeyP67Vo-7" value="(1,1)" style="text;html=1;strokeColor=none;fillColor=none;align=center;verticalAlign=middle;whiteSpace=wrap;rounded=0;" parent="1" vertex="1">
          <mxGeometry x="170" y="330" width="60" height="30" as="geometry" />
        </mxCell>
        <mxCell id="r82BjlyDpo2YeeyP67Vo-8" value="(1,N)" style="text;html=1;strokeColor=none;fillColor=none;align=center;verticalAlign=middle;whiteSpace=wrap;rounded=0;" parent="1" vertex="1">
          <mxGeometry x="290" y="90" width="60" height="30" as="geometry" />
        </mxCell>
        <mxCell id="r82BjlyDpo2YeeyP67Vo-9" value="(1:N)" style="text;html=1;strokeColor=none;fillColor=none;align=center;verticalAlign=middle;whiteSpace=wrap;rounded=0;" parent="1" vertex="1">
          <mxGeometry x="400" y="310" width="60" height="30" as="geometry" />
        </mxCell>
        <mxCell id="r82BjlyDpo2YeeyP67Vo-10" value="(1,N)" style="text;html=1;strokeColor=none;fillColor=none;align=center;verticalAlign=middle;whiteSpace=wrap;rounded=0;" parent="1" vertex="1">
          <mxGeometry x="520" y="130" width="60" height="30" as="geometry" />
        </mxCell>
        <mxCell id="r82BjlyDpo2YeeyP67Vo-27" value="" style="edgeStyle=orthogonalEdgeStyle;rounded=0;orthogonalLoop=1;jettySize=auto;html=1;" parent="1" source="r82BjlyDpo2YeeyP67Vo-11" target="r82BjlyDpo2YeeyP67Vo-26" edge="1">
          <mxGeometry relative="1" as="geometry" />
        </mxCell>
        <mxCell id="r82BjlyDpo2YeeyP67Vo-11" value="PACIENTE" style="rounded=0;whiteSpace=wrap;html=1;" parent="1" vertex="1">
          <mxGeometry x="170" y="60" width="120" height="60" as="geometry" />
        </mxCell>
        <mxCell id="r82BjlyDpo2YeeyP67Vo-12" value="DIAGNOSTICAR" style="rhombus;whiteSpace=wrap;html=1;rounded=0;" parent="1" vertex="1">
          <mxGeometry x="180" y="190" width="100" height="80" as="geometry" />
        </mxCell>
        <mxCell id="r82BjlyDpo2YeeyP67Vo-36" value="" style="edgeStyle=orthogonalEdgeStyle;rounded=0;orthogonalLoop=1;jettySize=auto;html=1;" parent="1" source="r82BjlyDpo2YeeyP67Vo-14" target="r82BjlyDpo2YeeyP67Vo-35" edge="1">
          <mxGeometry relative="1" as="geometry" />
        </mxCell>
        <mxCell id="r82BjlyDpo2YeeyP67Vo-14" value="MEDICO" style="whiteSpace=wrap;html=1;rounded=0;" parent="1" vertex="1">
          <mxGeometry x="170" y="360" width="120" height="60" as="geometry" />
        </mxCell>
        <mxCell id="r82BjlyDpo2YeeyP67Vo-16" value="ESPECIALIDAD" style="ellipse;whiteSpace=wrap;html=1;" parent="1" vertex="1">
          <mxGeometry x="50" y="450" width="100" height="30" as="geometry" />
        </mxCell>
        <mxCell id="r82BjlyDpo2YeeyP67Vo-17" value="FECHNAC" style="ellipse;whiteSpace=wrap;html=1;" parent="1" vertex="1">
          <mxGeometry x="160" y="-10" width="80" height="30" as="geometry" />
        </mxCell>
        <mxCell id="r82BjlyDpo2YeeyP67Vo-18" value="TLF" style="ellipse;whiteSpace=wrap;html=1;" parent="1" vertex="1">
          <mxGeometry x="60" y="-10" width="80" height="30" as="geometry" />
        </mxCell>
        <mxCell id="r82BjlyDpo2YeeyP67Vo-19" value="CP" style="ellipse;whiteSpace=wrap;html=1;" parent="1" vertex="1">
          <mxGeometry x="250" width="80" height="30" as="geometry" />
        </mxCell>
        <mxCell id="r82BjlyDpo2YeeyP67Vo-20" value="TLF" style="ellipse;whiteSpace=wrap;html=1;" parent="1" vertex="1">
          <mxGeometry x="70" y="420" width="80" height="30" as="geometry" />
        </mxCell>
        <mxCell id="r82BjlyDpo2YeeyP67Vo-21" value="APELLIDOS" style="ellipse;whiteSpace=wrap;html=1;" parent="1" vertex="1">
          <mxGeometry x="70" y="390" width="80" height="30" as="geometry" />
        </mxCell>
        <mxCell id="r82BjlyDpo2YeeyP67Vo-22" value="NOMBRE" style="ellipse;whiteSpace=wrap;html=1;" parent="1" vertex="1">
          <mxGeometry x="70" y="360" width="80" height="30" as="geometry" />
        </mxCell>
        <mxCell id="r82BjlyDpo2YeeyP67Vo-23" value="ID" style="ellipse;whiteSpace=wrap;html=1;fontStyle=4" parent="1" vertex="1">
          <mxGeometry x="70" y="330" width="80" height="30" as="geometry" />
        </mxCell>
        <mxCell id="r82BjlyDpo2YeeyP67Vo-29" value="" style="edgeStyle=orthogonalEdgeStyle;rounded=0;orthogonalLoop=1;jettySize=auto;html=1;" parent="1" source="r82BjlyDpo2YeeyP67Vo-26" target="r82BjlyDpo2YeeyP67Vo-28" edge="1">
          <mxGeometry relative="1" as="geometry" />
        </mxCell>
        <mxCell id="r82BjlyDpo2YeeyP67Vo-26" value="ESTAR" style="rhombus;whiteSpace=wrap;html=1;rounded=0;" parent="1" vertex="1">
          <mxGeometry x="390" y="50" width="80" height="80" as="geometry" />
        </mxCell>
        <mxCell id="r82BjlyDpo2YeeyP67Vo-28" value="INGRESO" style="whiteSpace=wrap;html=1;rounded=0;" parent="1" vertex="1">
          <mxGeometry x="530" y="60" width="120" height="60" as="geometry" />
        </mxCell>
        <mxCell id="r82BjlyDpo2YeeyP67Vo-34" value="" style="edgeStyle=orthogonalEdgeStyle;rounded=0;orthogonalLoop=1;jettySize=auto;html=1;" parent="1" source="r82BjlyDpo2YeeyP67Vo-30" target="r82BjlyDpo2YeeyP67Vo-26" edge="1">
          <mxGeometry relative="1" as="geometry" />
        </mxCell>
        <mxCell id="r82BjlyDpo2YeeyP67Vo-30" value="FEHA_INGRESO" style="ellipse;whiteSpace=wrap;html=1;" parent="1" vertex="1">
          <mxGeometry x="370" y="-40" width="120" height="30" as="geometry" />
        </mxCell>
        <mxCell id="r82BjlyDpo2YeeyP67Vo-31" value="NºCAMA" style="ellipse;whiteSpace=wrap;html=1;" parent="1" vertex="1">
          <mxGeometry x="650" y="20" width="80" height="30" as="geometry" />
        </mxCell>
        <mxCell id="r82BjlyDpo2YeeyP67Vo-32" value="NªHABITA" style="ellipse;whiteSpace=wrap;html=1;" parent="1" vertex="1">
          <mxGeometry x="570" y="20" width="80" height="30" as="geometry" />
        </mxCell>
        <mxCell id="r82BjlyDpo2YeeyP67Vo-33" value="ID" style="ellipse;whiteSpace=wrap;html=1;fontStyle=4" parent="1" vertex="1">
          <mxGeometry x="490" y="20" width="80" height="30" as="geometry" />
        </mxCell>
        <mxCell id="r82BjlyDpo2YeeyP67Vo-35" value="SUPERVISAR" style="rhombus;whiteSpace=wrap;html=1;rounded=0;" parent="1" vertex="1">
          <mxGeometry x="390" y="350" width="80" height="80" as="geometry" />
        </mxCell>
        <mxCell id="r82BjlyDpo2YeeyP67Vo-37" value="" style="endArrow=classic;html=1;rounded=0;exitX=1;exitY=0.5;exitDx=0;exitDy=0;" parent="1" source="r82BjlyDpo2YeeyP67Vo-35" edge="1">
          <mxGeometry width="50" height="50" relative="1" as="geometry">
            <mxPoint x="480" y="390" as="sourcePoint" />
            <mxPoint x="590" y="130" as="targetPoint" />
            <Array as="points">
              <mxPoint x="590" y="390" />
            </Array>
          </mxGeometry>
        </mxCell>
        <mxCell id="r82BjlyDpo2YeeyP67Vo-38" value="(1,N)" style="text;html=1;strokeColor=none;fillColor=none;align=center;verticalAlign=middle;whiteSpace=wrap;rounded=0;" parent="1" vertex="1">
          <mxGeometry x="470" y="90" width="60" height="30" as="geometry" />
        </mxCell>
        <mxCell id="r82BjlyDpo2YeeyP67Vo-39" value="(1,1)" style="text;html=1;strokeColor=none;fillColor=none;align=center;verticalAlign=middle;whiteSpace=wrap;rounded=0;" parent="1" vertex="1">
          <mxGeometry x="290" y="350" width="60" height="30" as="geometry" />
        </mxCell>
        <mxCell id="r82BjlyDpo2YeeyP67Vo-40" value="(1:N)" style="text;html=1;strokeColor=none;fillColor=none;align=center;verticalAlign=middle;whiteSpace=wrap;rounded=0;" parent="1" vertex="1">
          <mxGeometry x="400" y="130" width="60" height="30" as="geometry" />
        </mxCell>
        <mxCell id="r82BjlyDpo2YeeyP67Vo-41" value="" style="endArrow=classic;html=1;rounded=0;exitX=0.5;exitY=0;exitDx=0;exitDy=0;entryX=0.5;entryY=1;entryDx=0;entryDy=0;" parent="1" source="r82BjlyDpo2YeeyP67Vo-14" target="r82BjlyDpo2YeeyP67Vo-12" edge="1">
          <mxGeometry width="50" height="50" relative="1" as="geometry">
            <mxPoint x="390" y="330" as="sourcePoint" />
            <mxPoint x="440" y="280" as="targetPoint" />
          </mxGeometry>
        </mxCell>
        <mxCell id="r82BjlyDpo2YeeyP67Vo-42" value="" style="endArrow=classic;html=1;rounded=0;exitX=0.5;exitY=0;exitDx=0;exitDy=0;entryX=0.5;entryY=1;entryDx=0;entryDy=0;" parent="1" source="r82BjlyDpo2YeeyP67Vo-12" target="r82BjlyDpo2YeeyP67Vo-11" edge="1">
          <mxGeometry width="50" height="50" relative="1" as="geometry">
            <mxPoint x="260" y="180" as="sourcePoint" />
            <mxPoint x="240" y="130" as="targetPoint" />
          </mxGeometry>
        </mxCell>
        <mxCell id="r82BjlyDpo2YeeyP67Vo-43" value="(1,N)" style="text;html=1;strokeColor=none;fillColor=none;align=center;verticalAlign=middle;whiteSpace=wrap;rounded=0;" parent="1" vertex="1">
          <mxGeometry x="160" y="130" width="60" height="30" as="geometry" />
        </mxCell>
        <mxCell id="r82BjlyDpo2YeeyP67Vo-44" value="(1:N)" style="text;html=1;strokeColor=none;fillColor=none;align=center;verticalAlign=middle;whiteSpace=wrap;rounded=0;" parent="1" vertex="1">
          <mxGeometry x="110" y="215" width="60" height="30" as="geometry" />
        </mxCell>
        <mxCell id="upnYgk_dzNj3LREa0t97-1" value="PACIENTE(&lt;u&gt;ID, &lt;/u&gt;NOMBRE, APELLIDOS,DIR, CP, TLF,FECH_NAC, ID_MEDICO)" style="text;html=1;strokeColor=none;fillColor=none;align=center;verticalAlign=middle;whiteSpace=wrap;rounded=0;" vertex="1" parent="1">
          <mxGeometry x="-15" y="530" width="610" height="30" as="geometry" />
        </mxCell>
        <mxCell id="upnYgk_dzNj3LREa0t97-2" value="INGRESO(&lt;u&gt;ID&lt;/u&gt;, Nº_HABITA, Nº_CAMA, ID_MEDICO)" style="text;html=1;strokeColor=none;fillColor=none;align=center;verticalAlign=middle;whiteSpace=wrap;rounded=0;" vertex="1" parent="1">
          <mxGeometry x="-80" y="600" width="610" height="30" as="geometry" />
        </mxCell>
        <mxCell id="upnYgk_dzNj3LREa0t97-3" value="MEDICO(&lt;u&gt;ID&lt;/u&gt;, NOMBRE, APELLIDOS, TLF, ESPECIALIDAD)" style="text;html=1;strokeColor=none;fillColor=none;align=center;verticalAlign=middle;whiteSpace=wrap;rounded=0;" vertex="1" parent="1">
          <mxGeometry x="-20" y="670" width="610" height="30" as="geometry" />
        </mxCell>
        <mxCell id="upnYgk_dzNj3LREa0t97-7" value="" style="endArrow=classic;html=1;rounded=0;exitX=0.649;exitY=1.1;exitDx=0;exitDy=0;exitPerimeter=0;entryX=0.343;entryY=0.033;entryDx=0;entryDy=0;entryPerimeter=0;" edge="1" parent="1" source="upnYgk_dzNj3LREa0t97-2" target="upnYgk_dzNj3LREa0t97-3">
          <mxGeometry width="50" height="50" relative="1" as="geometry">
            <mxPoint x="500" y="650" as="sourcePoint" />
            <mxPoint x="550" y="600" as="targetPoint" />
          </mxGeometry>
        </mxCell>
        <mxCell id="upnYgk_dzNj3LREa0t97-8" value="" style="endArrow=classic;html=1;rounded=0;exitX=0.775;exitY=1.067;exitDx=0;exitDy=0;exitPerimeter=0;entryX=0.354;entryY=0.1;entryDx=0;entryDy=0;entryPerimeter=0;" edge="1" parent="1" source="upnYgk_dzNj3LREa0t97-1" target="upnYgk_dzNj3LREa0t97-3">
          <mxGeometry width="50" height="50" relative="1" as="geometry">
            <mxPoint x="469.9999999999998" y="623.9999999999998" as="sourcePoint" />
            <mxPoint x="651.76" y="606.01" as="targetPoint" />
            <Array as="points">
              <mxPoint x="420" y="630" />
            </Array>
          </mxGeometry>
        </mxCell>
      </root>
    </mxGraphModel>
  </diagram>
  <diagram id="X0QP2VdHxtNOsJLnR0KZ" name="EJERCICIO_6">
    <mxGraphModel dx="1418" dy="1997" grid="1" gridSize="10" guides="1" tooltips="1" connect="1" arrows="1" fold="1" page="1" pageScale="1" pageWidth="827" pageHeight="1169" math="0" shadow="0">
      <root>
        <mxCell id="0" />
        <mxCell id="1" parent="0" />
        <mxCell id="hyeWzQ9x1VnCJ0pX1U8q-2" value="STOCK" style="ellipse;whiteSpace=wrap;html=1;" parent="1" vertex="1">
          <mxGeometry x="340" y="-50" width="80" height="30" as="geometry" />
        </mxCell>
        <mxCell id="oBnRoid5C18YtRgeQvLH-12" value="" style="edgeStyle=orthogonalEdgeStyle;rounded=0;orthogonalLoop=1;jettySize=auto;html=1;" parent="1" source="hyeWzQ9x1VnCJ0pX1U8q-3" target="oBnRoid5C18YtRgeQvLH-2" edge="1">
          <mxGeometry relative="1" as="geometry" />
        </mxCell>
        <mxCell id="hyeWzQ9x1VnCJ0pX1U8q-3" value="PRECIO" style="ellipse;whiteSpace=wrap;html=1;" parent="1" vertex="1">
          <mxGeometry x="340" y="-20" width="80" height="30" as="geometry" />
        </mxCell>
        <mxCell id="hyeWzQ9x1VnCJ0pX1U8q-4" value="DESCR" style="ellipse;whiteSpace=wrap;html=1;" parent="1" vertex="1">
          <mxGeometry x="10" y="50" width="80" height="30" as="geometry" />
        </mxCell>
        <mxCell id="hyeWzQ9x1VnCJ0pX1U8q-5" value="ID" style="ellipse;whiteSpace=wrap;html=1;fontStyle=4" parent="1" vertex="1">
          <mxGeometry x="10" y="20" width="80" height="30" as="geometry" />
        </mxCell>
        <mxCell id="hyeWzQ9x1VnCJ0pX1U8q-10" value="(1,N)" style="text;html=1;strokeColor=none;fillColor=none;align=center;verticalAlign=middle;whiteSpace=wrap;rounded=0;" parent="1" vertex="1">
          <mxGeometry x="90" y="120" width="60" height="30" as="geometry" />
        </mxCell>
        <mxCell id="hyeWzQ9x1VnCJ0pX1U8q-11" value="(1,N)" style="text;html=1;strokeColor=none;fillColor=none;align=center;verticalAlign=middle;whiteSpace=wrap;rounded=0;" parent="1" vertex="1">
          <mxGeometry x="220" y="90" width="60" height="30" as="geometry" />
        </mxCell>
        <mxCell id="hyeWzQ9x1VnCJ0pX1U8q-12" value="PRODUCTO" style="rounded=0;whiteSpace=wrap;html=1;" parent="1" vertex="1">
          <mxGeometry x="100" y="50" width="120" height="60" as="geometry" />
        </mxCell>
        <mxCell id="oBnRoid5C18YtRgeQvLH-3" value="" style="edgeStyle=orthogonalEdgeStyle;rounded=0;orthogonalLoop=1;jettySize=auto;html=1;" parent="1" source="oBnRoid5C18YtRgeQvLH-1" target="oBnRoid5C18YtRgeQvLH-2" edge="1">
          <mxGeometry relative="1" as="geometry" />
        </mxCell>
        <mxCell id="oBnRoid5C18YtRgeQvLH-1" value="CLIENTE" style="rounded=0;whiteSpace=wrap;html=1;" parent="1" vertex="1">
          <mxGeometry x="520" y="50" width="120" height="60" as="geometry" />
        </mxCell>
        <mxCell id="oBnRoid5C18YtRgeQvLH-2" value="COMPRA" style="rhombus;whiteSpace=wrap;html=1;rounded=0;" parent="1" vertex="1">
          <mxGeometry x="340" y="40" width="80" height="80" as="geometry" />
        </mxCell>
        <mxCell id="oBnRoid5C18YtRgeQvLH-4" value="" style="endArrow=classic;html=1;rounded=0;exitX=0;exitY=0.5;exitDx=0;exitDy=0;" parent="1" source="oBnRoid5C18YtRgeQvLH-2" edge="1">
          <mxGeometry width="50" height="50" relative="1" as="geometry">
            <mxPoint x="390" y="430" as="sourcePoint" />
            <mxPoint x="230" y="80" as="targetPoint" />
          </mxGeometry>
        </mxCell>
        <mxCell id="oBnRoid5C18YtRgeQvLH-5" value="APELLLIDOS" style="ellipse;whiteSpace=wrap;html=1;" parent="1" vertex="1">
          <mxGeometry x="640" y="70" width="80" height="30" as="geometry" />
        </mxCell>
        <mxCell id="oBnRoid5C18YtRgeQvLH-6" value="NOMBRE" style="ellipse;whiteSpace=wrap;html=1;" parent="1" vertex="1">
          <mxGeometry x="640" y="40" width="80" height="30" as="geometry" />
        </mxCell>
        <mxCell id="oBnRoid5C18YtRgeQvLH-7" value="ID" style="ellipse;whiteSpace=wrap;html=1;fontStyle=4" parent="1" vertex="1">
          <mxGeometry x="640" y="10" width="80" height="30" as="geometry" />
        </mxCell>
        <mxCell id="oBnRoid5C18YtRgeQvLH-8" value="PROVINCIA" style="ellipse;whiteSpace=wrap;html=1;" parent="1" vertex="1">
          <mxGeometry x="10" y="460" width="80" height="30" as="geometry" />
        </mxCell>
        <mxCell id="oBnRoid5C18YtRgeQvLH-9" value="FECHA" style="ellipse;whiteSpace=wrap;html=1;" parent="1" vertex="1">
          <mxGeometry x="340" y="-80" width="80" height="30" as="geometry" />
        </mxCell>
        <mxCell id="oBnRoid5C18YtRgeQvLH-10" value="TLF" style="ellipse;whiteSpace=wrap;html=1;" parent="1" vertex="1">
          <mxGeometry x="640" y="130" width="80" height="30" as="geometry" />
        </mxCell>
        <mxCell id="oBnRoid5C18YtRgeQvLH-11" value="DIR" style="ellipse;whiteSpace=wrap;html=1;" parent="1" vertex="1">
          <mxGeometry x="640" y="100" width="80" height="30" as="geometry" />
        </mxCell>
        <mxCell id="oBnRoid5C18YtRgeQvLH-13" value="(1,N)" style="text;html=1;strokeColor=none;fillColor=none;align=center;verticalAlign=middle;whiteSpace=wrap;rounded=0;" parent="1" vertex="1">
          <mxGeometry x="460" y="80" width="60" height="30" as="geometry" />
        </mxCell>
        <mxCell id="oBnRoid5C18YtRgeQvLH-14" value="(N:M)" style="text;html=1;strokeColor=none;fillColor=none;align=center;verticalAlign=middle;whiteSpace=wrap;rounded=0;" parent="1" vertex="1">
          <mxGeometry x="350" y="130" width="60" height="30" as="geometry" />
        </mxCell>
        <mxCell id="oBnRoid5C18YtRgeQvLH-19" value="" style="edgeStyle=orthogonalEdgeStyle;rounded=0;orthogonalLoop=1;jettySize=auto;html=1;" parent="1" source="oBnRoid5C18YtRgeQvLH-15" target="hyeWzQ9x1VnCJ0pX1U8q-12" edge="1">
          <mxGeometry relative="1" as="geometry" />
        </mxCell>
        <mxCell id="oBnRoid5C18YtRgeQvLH-15" value="SUMINISTRA" style="rhombus;whiteSpace=wrap;html=1;rounded=0;" parent="1" vertex="1">
          <mxGeometry x="115" y="180" width="90" height="80" as="geometry" />
        </mxCell>
        <mxCell id="oBnRoid5C18YtRgeQvLH-18" value="" style="edgeStyle=orthogonalEdgeStyle;rounded=0;orthogonalLoop=1;jettySize=auto;html=1;" parent="1" source="oBnRoid5C18YtRgeQvLH-17" target="oBnRoid5C18YtRgeQvLH-15" edge="1">
          <mxGeometry relative="1" as="geometry" />
        </mxCell>
        <mxCell id="oBnRoid5C18YtRgeQvLH-17" value="PROVEEDOR" style="rounded=0;whiteSpace=wrap;html=1;" parent="1" vertex="1">
          <mxGeometry x="100" y="340" width="120" height="60" as="geometry" />
        </mxCell>
        <mxCell id="oBnRoid5C18YtRgeQvLH-20" value="(1,N)" style="text;html=1;strokeColor=none;fillColor=none;align=center;verticalAlign=middle;whiteSpace=wrap;rounded=0;" parent="1" vertex="1">
          <mxGeometry x="90" y="310" width="60" height="30" as="geometry" />
        </mxCell>
        <mxCell id="oBnRoid5C18YtRgeQvLH-21" value="(N:M)" style="text;html=1;strokeColor=none;fillColor=none;align=center;verticalAlign=middle;whiteSpace=wrap;rounded=0;" parent="1" vertex="1">
          <mxGeometry x="60" y="200" width="60" height="30" as="geometry" />
        </mxCell>
        <mxCell id="oBnRoid5C18YtRgeQvLH-25" value="APELLLIDOS" style="ellipse;whiteSpace=wrap;html=1;" parent="1" vertex="1">
          <mxGeometry x="10" y="370" width="80" height="30" as="geometry" />
        </mxCell>
        <mxCell id="oBnRoid5C18YtRgeQvLH-26" value="NOMBRE" style="ellipse;whiteSpace=wrap;html=1;" parent="1" vertex="1">
          <mxGeometry x="10" y="340" width="80" height="30" as="geometry" />
        </mxCell>
        <mxCell id="oBnRoid5C18YtRgeQvLH-27" value="ID" style="ellipse;whiteSpace=wrap;html=1;fontStyle=4" parent="1" vertex="1">
          <mxGeometry x="10" y="310" width="80" height="30" as="geometry" />
        </mxCell>
        <mxCell id="oBnRoid5C18YtRgeQvLH-28" value="TLF" style="ellipse;whiteSpace=wrap;html=1;" parent="1" vertex="1">
          <mxGeometry x="10" y="430" width="80" height="30" as="geometry" />
        </mxCell>
        <mxCell id="oBnRoid5C18YtRgeQvLH-29" value="DIR" style="ellipse;whiteSpace=wrap;html=1;" parent="1" vertex="1">
          <mxGeometry x="10" y="400" width="80" height="30" as="geometry" />
        </mxCell>
        <mxCell id="LLYLFtJtlV2-rH23A8Xn-1" value="PRODUCTO(&lt;u&gt;ID&lt;/u&gt;, DESCRIPCION)" style="text;html=1;strokeColor=none;fillColor=none;align=center;verticalAlign=middle;whiteSpace=wrap;rounded=0;" vertex="1" parent="1">
          <mxGeometry x="90" y="430" width="410" height="30" as="geometry" />
        </mxCell>
        <mxCell id="2MRVzWJqv5nR7srRE3oI-1" value="CLIENTE(&lt;u&gt;ID&lt;/u&gt;, NOMBRE, APELLIDOS,DIR,TLF)" style="text;html=1;strokeColor=none;fillColor=none;align=center;verticalAlign=middle;whiteSpace=wrap;rounded=0;" vertex="1" parent="1">
          <mxGeometry x="115" y="570" width="410" height="30" as="geometry" />
        </mxCell>
        <mxCell id="2MRVzWJqv5nR7srRE3oI-2" value="PROVEEDOR(&lt;u&gt;ID&lt;/u&gt;, NOMBRE, APELLIDOS, DOR, TLF, PROVINCIA)" style="text;html=1;strokeColor=none;fillColor=none;align=center;verticalAlign=middle;whiteSpace=wrap;rounded=0;" vertex="1" parent="1">
          <mxGeometry x="175" y="730" width="410" height="30" as="geometry" />
        </mxCell>
        <mxCell id="2MRVzWJqv5nR7srRE3oI-3" value="PRODUCTO_CLIENTE( &lt;u&gt;IDPRODUCTO, ID_CLIENTE&lt;/u&gt;, PRECIO, STOCK, FECHA)" style="text;html=1;strokeColor=none;fillColor=none;align=center;verticalAlign=middle;whiteSpace=wrap;rounded=0;" vertex="1" parent="1">
          <mxGeometry x="175" y="500" width="485" height="30" as="geometry" />
        </mxCell>
        <mxCell id="2MRVzWJqv5nR7srRE3oI-4" value="" style="endArrow=classic;html=1;rounded=0;entryX=0.548;entryY=1.233;entryDx=0;entryDy=0;entryPerimeter=0;" edge="1" parent="1" target="2MRVzWJqv5nR7srRE3oI-3">
          <mxGeometry width="50" height="50" relative="1" as="geometry">
            <mxPoint x="260" y="580" as="sourcePoint" />
            <mxPoint x="310" y="530" as="targetPoint" />
            <Array as="points">
              <mxPoint x="440" y="560" />
            </Array>
          </mxGeometry>
        </mxCell>
        <mxCell id="2MRVzWJqv5nR7srRE3oI-5" value="" style="endArrow=classic;html=1;rounded=0;" edge="1" parent="1" target="2MRVzWJqv5nR7srRE3oI-3">
          <mxGeometry width="50" height="50" relative="1" as="geometry">
            <mxPoint x="280" y="450" as="sourcePoint" />
            <mxPoint x="280" y="530" as="targetPoint" />
          </mxGeometry>
        </mxCell>
        <mxCell id="2MRVzWJqv5nR7srRE3oI-7" value="PRODUCTO_PROVEEDOR(&lt;u&gt;ID_PRODUCTO, ID_PROVEEDOR&lt;/u&gt;)" style="text;html=1;strokeColor=none;fillColor=none;align=center;verticalAlign=middle;whiteSpace=wrap;rounded=0;" vertex="1" parent="1">
          <mxGeometry x="175" y="650" width="410" height="30" as="geometry" />
        </mxCell>
        <mxCell id="2MRVzWJqv5nR7srRE3oI-8" value="" style="endArrow=classic;html=1;rounded=0;entryX=0.298;entryY=-0.033;entryDx=0;entryDy=0;entryPerimeter=0;" edge="1" parent="1" target="2MRVzWJqv5nR7srRE3oI-2">
          <mxGeometry width="50" height="50" relative="1" as="geometry">
            <mxPoint x="480" y="670" as="sourcePoint" />
            <mxPoint x="480" y="720" as="targetPoint" />
          </mxGeometry>
        </mxCell>
        <mxCell id="2MRVzWJqv5nR7srRE3oI-9" value="" style="endArrow=classic;html=1;rounded=0;entryX=0.5;entryY=0;entryDx=0;entryDy=0;" edge="1" parent="1" target="2MRVzWJqv5nR7srRE3oI-7">
          <mxGeometry width="50" height="50" relative="1" as="geometry">
            <mxPoint x="280" y="450" as="sourcePoint" />
            <mxPoint x="190" y="640" as="targetPoint" />
            <Array as="points">
              <mxPoint x="140" y="480" />
              <mxPoint x="130" y="620" />
            </Array>
          </mxGeometry>
        </mxCell>
      </root>
    </mxGraphModel>
  </diagram>
  <diagram id="vAgUUrub-ytADbyBFXcD" name="EJERCICIO_7">
    <mxGraphModel grid="1" page="1" gridSize="10" guides="1" tooltips="1" connect="1" arrows="1" fold="1" pageScale="1" pageWidth="827" pageHeight="1169" math="0" shadow="0">
      <root>
        <mxCell id="0" />
        <mxCell id="1" parent="0" />
      </root>
    </mxGraphModel>
  </diagram>
</mxfile>
